<?xml version="1.0" encoding="utf-8"?>
<svg xmlns="http://www.w3.org/2000/svg" viewBox="300.899 119.3008 104.9291 92.9886" width="104.929px" height="92.9886px" preserveAspectRatio="none"><path d="M 495.936 950 C 332.711 799.658 71.626 554.632 -29.278 459.18 C -11.105 440.832 99.016 334.224 120.872 314.92 C 214.165 404.483 247.328 436.003 376.732 564.956 C 375.817 502.254 380.886 20.611 380.886 20.611 L 629.459 20.114 C 629.459 20.114 617.084 505.803 617.352 569.688 C 729.065 469.45 837.386 357.871 896.4 306.792 C 952.801 371.817 1000.82 420.404 1020.013 442.175 C 864.811 596.162 536.217 914.508 495.936 950 Z" id="object-0" transform="matrix(0.10000000149011612, 0, 0, -0.10000000149011612, 303.82684326171875, 214.30078125)"/></svg>