<?xml version="1.0" encoding="utf-8"?>
<svg xmlns="http://www.w3.org/2000/svg" viewBox="0 0 500 500" xmlns:bx="https://boxy-svg.com" width="500px" height="500px"><defs><bx:export><bx:file format="svg" path="DotesIcon.svg"/></bx:export></defs><path d="M 308.675 91.998 C 316.64 98.218 347.283 166.89 346.413 169.951 C 345.751 174.588 329.361 185.442 327.676 186.447 C 324.427 188.614 318.96 187.992 319.13 196.428 C 319.372 203.221 318.636 205.611 314.161 208.406 C 284.159 207.955 236.534 195.431 228.317 194.259 C 213.891 213.703 225.87 283.6 231.987 292.935 C 232.98 292.283 233.972 291.631 234.995 290.959 C 265.008 271.522 295.583 267.715 330.545 271.665 C 334.689 272.123 340.07 273.76 344.219 274.167 C 348.933 258.096 395.136 218.895 421.987 219.784 C 427.378 221.359 428.314 226.731 424.89 229.435 C 422.095 231.639 418.921 232.363 415.55 233.31 C 387.168 241.785 367.187 258.935 352.608 284.424 C 348.605 292.349 336.882 287.58 334.604 287.181 C 311.692 283.169 262.256 280.419 230.737 314.06 C 218.728 326.615 211.316 342.384 206.276 358.814 C 202.667 370.482 202.667 370.482 198.987 372.935 C 195.407 373.816 193.215 373.44 191.112 370.81 C 189.023 367.328 189.633 363.431 190.535 359.622 C 191.313 357.015 207.984 316.804 223.772 298.78 C 218.562 296.479 201.328 217.216 218.74 190.406 C 213.528 182.564 206.251 172.592 205.987 168.935 C 206.953 166.186 207.367 165.245 209.987 163.935 C 218.852 159.5 223.707 173.431 225.948 177.51 C 236.02 189.944 312.525 200.874 310.189 196.064 C 310.895 188.728 309.162 182.474 312.999 180.448 C 314.881 179.454 319.323 178.049 323.909 177.475 C 325.623 176.337 332.705 171.799 333.998 168.935 C 333.438 164.559 304.509 104.355 294.987 100.935 C 285.34 97.79 217.527 121.911 215.255 122.637 C 181.997 133.268 183.516 138.957 156.748 189.452 C 127.735 244.182 106.139 304.775 95.987 365.935 C 95.842 366.811 92.697 407.723 97.603 425.935 C 98.003 427.42 108.364 461.782 118.717 468.519 C 121.563 471.548 137.589 473.217 138.929 473.362 C 178.858 477.603 261.371 484.708 357.354 444.377 C 369.985 439.069 400.089 417.128 404.109 417.133 C 407.811 417.766 441.656 418.914 437.987 429.935 C 434.684 438.656 421.052 434.026 414.671 432.592 C 405.689 429.977 407.244 431.532 400.55 434.336 C 314.773 498.393 179.832 492.203 131.8 487.435 C 129.991 487.258 123.296 486.563 121.807 486.406 C 114.998 485.269 111.67 483.123 107.612 477.623 C 107.139 476.999 92.922 455.056 92.374 454.088 C 72.59 416.922 80.63 372.614 87.688 332.762 C 99.215 267.681 129.342 205.604 162.925 149.31 C 163.527 148.298 177.894 127.713 178.361 127.083 C 185.694 117.639 196.616 113.552 207.675 110.06 C 209.048 109.615 279.689 87.902 280.602 87.627 C 291.246 84.54 299.245 86.205 308.675 91.998 Z" fill="#000000" style="stroke-width: 1;"/><path d="M 385.718 358.02 C 372.661 403.665 292.794 438.679 215.853 407.624 C 205.905 402.607 208.431 391.28 220.072 396.758 C 247.548 412.011 345.256 422.479 375.248 354.996 C 378.126 348.52 387.174 351.38 385.718 358.02 Z" fill="#000000" style="stroke-width: 1;"/><path d="M 73.905 137.001 L 78.216 160.603 C 78.216 160.603 97.914 174.918 97.914 175.443 C 97.279 175.563 75.412 179.796 75.412 179.796 L 60.109 198.98 C 60.109 198.98 55.709 175.456 55.247 175.238 C 53.572 174.363 39.285 163.873 36.964 161.371 C 38.779 160.901 57.168 156.904 58.633 156.67 C 60.947 156.234 73.905 137.001 73.905 137.001 Z M 71.716 146.848 C 70.935 147.797 61.939 161.398 61.939 161.398 C 61.939 161.398 48.675 163.489 46.986 163.794 C 48.873 165.79 59.722 171.949 59.722 171.949 C 59.722 171.949 62.055 185.988 62.586 189.319 C 65.306 186.783 72.321 175.241 72.321 175.241 C 72.321 175.241 87.797 173.859 88.907 173.683 C 87.955 172.351 73.854 163.425 73.854 163.425 C 73.854 163.425 72.241 147.11 71.716 146.848 Z" fill="#000000" style="stroke-width: 1; transform-origin: 67.439px 168.216px;" transform="matrix(0.801667, -0.597771, 0.597771, 0.801667, 0.000002, -0.000002)"/><path d="M 163.582 15.66 L 170.567 53.903 C 170.567 53.903 202.485 77.098 202.485 77.949 C 201.456 78.144 166.024 85.003 166.024 85.003 L 141.228 116.087 C 141.228 116.087 134.098 77.97 133.35 77.617 C 130.636 76.199 107.486 59.202 103.725 55.148 C 106.666 54.386 136.462 47.909 138.836 47.53 C 142.586 46.824 163.582 15.66 163.582 15.66 Z M 160.035 31.615 C 158.77 33.153 144.193 55.191 144.193 55.191 C 144.193 55.191 122.701 58.579 119.964 59.074 C 123.021 62.308 140.601 72.288 140.601 72.288 C 140.601 72.288 144.381 95.036 145.241 100.433 C 149.649 96.324 161.015 77.622 161.015 77.622 C 161.015 77.622 186.092 75.383 187.891 75.097 C 186.348 72.939 163.499 58.476 163.499 58.476 C 163.499 58.476 160.886 32.04 160.035 31.615 Z" fill="#000000" style="stroke-width: 1; transform-origin: 153.105px 66.239px;" transform="matrix(0.965308, -0.261114, 0.261114, 0.965308, -0.000001, 0.000002)"/><path d="M 415.398 89.512 L 423.181 132.12 C 423.181 132.12 458.742 157.963 458.742 158.911 C 457.595 159.128 417.801 166.11 417.801 166.11 L 390.811 202.062 C 390.811 202.062 382.549 158.934 381.715 158.541 C 378.692 156.961 352.899 138.024 348.709 133.507 C 351.986 132.658 385.183 125.442 387.828 125.02 C 392.006 124.233 415.398 89.512 415.398 89.512 Z M 411.446 107.288 C 410.037 109.002 393.796 133.555 393.796 133.555 C 393.796 133.555 369.851 137.33 366.801 137.881 C 370.207 141.484 389.794 152.604 389.794 152.604 C 389.794 152.604 394.006 177.948 394.964 183.961 C 399.875 179.383 412.538 158.546 412.538 158.546 C 412.538 158.546 439.412 155.02 441.416 154.701 C 439.697 152.297 415.306 137.215 415.306 137.215 C 415.306 137.215 412.395 107.761 411.446 107.288 Z" fill="#000000" style="stroke-width: 1; transform-origin: 403.725px 145.864px;" transform="matrix(0.99195, 0.126631, -0.126631, 0.99195, -0.000065, -0.000046)"/></svg>