<?xml version="1.0" encoding="utf-8"?>
<svg xmlns="http://www.w3.org/2000/svg" viewBox="0 0 500 500" xmlns:bx="https://boxy-svg.com" width="500px" height="500px"><defs><bx:export><bx:file format="svg" path="Sin título.svg"/></bx:export></defs><g transform="matrix(0.1, 0, 0, -0.1, -6.676809, 428.682068)" fill="#000000" stroke="none"><path d="M 418 3671 C 292 3631 210 3549 210 3465 C 210 3440 201 3413 185 3390 C 149 3338 142 3265 168 3214 C 190 3171 223 3132 279 3086 C 299 3069 316 3051 315 3045 C 315 3039 295 3036 268 3038 C 209 3042 178 3023 151 2966 C 101 2859 119 2739 194 2673 C 269 2608 362 2583 425 2612 C 439 2618 440.458 2631.735 441.458 2640.735 C 441.458 2650.735 487.697 2647.53 491.697 2639.53 C 502.697 2611.53 570 2639 583 2672 C 586 2679 589 2675 589 2663 C 591 2618 667 2607 771 2636 C 832 2653 881.198 2736.649 856 2717 C 811.568 2682.352 791 2689 773 2717 C 760 2737 761 2741 800 2780 C 878 2858 942 2881 968 2840 C 981 2818 1023 2814 1077 2829 C 1112 2839 1130 2828 1130 2795 C 1130 2746 1231 2702 1311 2715 C 1332 2719 1358 2717 1369 2710 C 1386 2701 1403 2705 1458 2728 C 1530 2760 1648.955 2786.432 1715 2750 C 1781.045 2713.568 1740 2754 1740 2759 C 1740 2778 1682 2826 1627 2853 C 1577 2877 1560 2880 1470 2880 L 1368 2880 L 1334 2914 C 1307 2941 1300 2956 1300 2987 C 1300 3008 1305 3031 1312 3038 C 1321 3047 1320 3053 1304 3065 C 1281 3083 1256 3084 1230 3068 C 1214 3058 1205 3060 1173 3086 C 1117 3132 1119 3146 1185 3176 C 1264 3212 1271 3233 1230 3305 C 1179 3394 1136 3430 1081 3430 C 1060 3430 1046 3423 1035 3406 C 1014 3374 984 3368 948 3386 C 928 3396 906 3399 880 3395 C 853 3390 834 3393 817 3405 C 774 3433 721 3406 736 3365 C 743 3347 718 3345 689 3360 C 666 3373 664 3417 686 3448 C 695 3461 726 3485 756 3501 C 814 3534 818 3540 794 3564 C 783 3575 759 3580 714 3580 L 650 3580 L 633 3618 C 600 3687 526 3705 418 3671 Z"/><path d="M 2128 3524 C 2033 3499 1988 3478 1923 3429 C 1883 3398 1879 3398 1767 3396 C 1659 3394 1650 3393 1605 3365 C 1578 3348 1552 3326 1546 3315 C 1540 3304 1527 3283 1518 3268 C 1493 3232 1496 3182 1524 3136 C 1562 3075 1594 3059 1665 3066 C 1724 3072 1726 3071 1738 3046 C 1745 3031 1750 2996 1750 2967 C 1750 2901 1760 2884 1788 2899 C 1819 2915 1828 2913 1843 2883 C 1869 2832 1871 2791 1852 2746 C 1837 2713 1775 2629 1718 2565 C 1713 2560 1705 2561 1698 2568 C 1682 2584 1650 2583 1649 2568 C 1646 2510 1640 2480 1626 2446 C 1601 2385 1605 2355 1643 2326 C 1718 2269 1778 2258 1847 2290 C 1871 2300 1892 2305 1894 2301 C 1908 2280 1798 2165 1731 2130 C 1708 2118 1573 2086 1501 2075 C 1482 2072 1462 2066 1456 2062 C 1450 2058 1442 2055 1438 2054 C 1433 2053 1428 2051 1425 2050 C 1422 2049 1417 2047 1413 2046 C 1408 2045 1367 2029 1320 2011 C 1227 1974 1092 1932 1045 1925 C 977 1914 928 1896 915 1877 C 902 1858 903 1853 927 1828 C 951 1803 952 1799 937 1777 C 929 1764 917 1736 911 1715 C 899 1670 907 1660 957 1660 C 1011 1660 1020 1652 1020 1605 C 1020 1581 1024 1559 1029 1556 C 1040 1549 1090.67 1572.72 1097.789 1581.105 C 1112.713 1598.683 1288 1625 1318 1606 C 1340 1593 1303 1507 1265 1488 C 1252 1481 1222 1458 1198 1438 C 1174 1418 1140 1389 1122 1374 C 1061 1325 982 1181 950 1061 C 931 992 931 963 951 865 C 962 808 967 801 1049 721 C 1096 675 1159 620 1188 598 C 1248 551 1253 531 1211 489 C 1182 461 1179 460 1113 465 C 1076 468 1037 473 1028 476 C 993 486 922 432 854 343 C 813 289 820 266 877 275 C 972 290 1060 278 1060 250 C 1060 239 1123 245 1143 257 C 1149 261 1158 265 1163 266 C 1167 267 1173 269 1178 270 C 1182 271 1211 272 1242 270 C 1273 269 1322 275 1352 284 C 1381 292 1468 306 1545 315 C 1730 336 1744 340 1748 370 C 1753 403 1704 522 1675 550 C 1661 563 1650 582 1650 591 C 1650 613 1677.805 629.04 1695 620 C 1698 614 1722 601 1748 589 C 1774 577 1841 546 1897 519 C 1953 492 2023 461 2053 451 C 2083 440 2126 420 2149 406 C 2190 380 2191 380 2220 397 C 2237 406 2244.065 420.813 2244.065 429.813 C 2244.065 438.813 2217.845 471.626 2183.845 503.626 C 2103.845 576.626 1985.845 709.594 1985.845 722.594 C 1985.845 728.594 2002 717 2018 699 C 2033 680 2092 616 2150 556 C 2217 487 2255 440 2255 426 C 2255 410 2241 398 2200 377 C 2129 341 2066 279 2033 212 C 2012 168 2009 157 2020 150 C 2028 145 2037 143 2042 146 C 2056 155 2229 162 2274 156 C 2310 150 2329 139 2371 99 L 2422 48 L 2465 92 C 2506 134 2512 137 2591 149 C 2666 160 2683 159 2747 142 C 2796 130 2821.51 127 2828.51 134 C 2860.51 166 2807 282 2713 375 C 2637 451 2600 503 2600 535 C 2600 557 2659 704 2660 683 C 2660 677 2650 647 2639 616 C 2592.12 521.375 2621 504 2700 417 C 2808 300 2788 305 3130 305 C 3372 305 3441 308 3517 323 C 3750 368 3985 482 4149 629 C 4224 695 4350 854 4371 907 C 4447 1099 4466 1197 4455 1335 C 4448 1425 4425 1564 4414 1581 C 4403 1599 4421 1647 4450 1677 C 4486 1713 4577 1760 4612 1760 C 4627 1760 4641 1764 4644 1769 C 4650 1778 4592 1810 4571 1810 C 4549 1810 4561 1827 4593 1842 C 4643 1866 4686 1873 4710 1860 C 4737 1845 4751.852 1837.419 4727.027 1884 C 4717.331 1902.193 4719 1913 4677 1925 C 4624.757 1939.263 4524.412 1977.004 4594.135 2000.243 C 4557.851 2036.406 4520.175 2012.149 4511.175 2022.149 C 4494.175 2041.149 4534.311 2086.892 4607.771 2095.513 C 4575.595 2139.338 4583.519 2153.105 4653.236 2153.618 C 4680.91 2147.972 4679.364 2182.007 4698.671 2188.354 C 4736.139 2255.556 4671.808 2175.411 4658.694 2203.576 C 4619.783 2233.687 4693 2236 4701 2254 C 4711 2276 4710 2283 4696 2299 C 4682 2314 4678.194 2330.863 4678.524 2347.86 C 4679.118 2378.476 4716.723 2420.255 4766.723 2441.255 C 4791.723 2451.255 4829.967 2456.86 4840.967 2462.86 C 4915.908 2482.919 4940.535 2484.838 4965.535 2479.838 L 4995 2479 L 4970 2500 C 4937 2526 4889 2540 4808 2547 C 4714 2555 4665 2539 4601 2479 C 4571 2451 4529 2420 4506 2408 C 4484 2397 4452 2376 4436 2363 C 4410 2341 4407 2341 4395 2356 C 4388 2366 4376 2371 4368 2367 C 4359 2364 4347.384 2348.745 4335.605 2356.21 C 4306.42 2362.594 4309 2370 4265 2350 C 4210 2325 4199 2316 4203 2300 C 4206 2287 4201 2275 4190 2267 C 4180 2260 4168 2242 4165 2228 C 4161 2214 4148 2192 4135 2180 C 4112 2159 4109 2158 4086 2173 C 4062 2189 4029.716 2241.554 4082 2246 C 4096.946 2247.271 4067 2290 4050 2290 C 4022 2290 3991 2267 3966 2226 C 3950 2201 3928.635 2112.702 3916.027 2184.487 C 3892.027 2184.487 3888 2153 3901 2132 C 3908 2121 3910 2102 3906 2087 C 3901 2065 3894 2060 3870 2060 C 3847 2060 3837 2053 3825 2030 C 3817 2014 3822.338 1975.175 3822.338 1963.175 C 3801.027 1953.418 3799.27 1983.433 3795.27 1986.433 C 3785.27 1992.433 3748 1926 3731 1893 C 3712 1855 3719 1829 3764 1779 C 3805 1733 3827 1676 3808 1664 C 3804 1661 3800 1655 3800 1650 C 3800 1642 3846 1653 3879 1670 C 3889 1674 3904 1665 3923 1643 C 3941 1622 3959 1611 3968 1615 C 3979 1619 3981 1614 3978 1590 C 3975 1574 3974 1560 3975 1560 C 3977 1560 3997 1567 4020 1575 C 4074 1594 4169 1595 4196 1576 C 4222 1558 4249 1555 4280 1567 C 4314 1581 4318 1567 4319 1453 C 4320 1345 4299 1243 4263 1180 C 4200 1072 4029 909 3930 864 C 3900 850 3862 832 3845 825 C 3767 789 3702 779 3525 773 C 3352 768 3341 769 3257 794 C 3140 829 3084 858 2972 944 C 2920 983 2866 1024 2852 1034 C 2810 1063 2688 1224 2657 1291 C 2618 1371 2613 1418 2635 1491 C 2652 1546 2652 1555 2638 1598 C 2622 1651 2619 1642 2684 1743 C 2704 1775 2720 1806 2718 1812 C 2716 1818 2699 1828 2680 1834 C 2650 1843 2643 1852 2627 1898 C 2611 1946 2611 1953 2626 1967 C 2661 2003 2673 2030 2663 2053 C 2657 2065 2641 2102 2626 2135 C 2610 2167 2596 2217 2593 2245 C 2587 2302 2608 2356 2705 2530 C 2763 2633 2774 2666 2790 2782 C 2799 2848 2805.613 2883.153 2784.613 3030.153 C 2759.613 3199.153 2737 3246 2692 3330 C 2637 3431 2597 3466 2490 3508 C 2365 3556 2266 3561 2128 3524 Z M 2476 3255 C 2500 3196 2488 3035 2454 2968 C 2430 2922 2406 2923 2301 2976 C 2181 3037 2177 3050 2242 3152 C 2301 3243 2363 3289 2428 3290 C 2456 3290 2463 3285 2476 3255 Z M 2401 1944 C 2408 1936 2426 1922 2440 1915 C 2465 1902 2470 1903 2501 1925 C 2519 1939 2539 1950 2544 1950 C 2550 1950 2535 1936 2510 1920 C 2485 1904 2462 1890 2458 1890 C 2454 1890 2435 1904 2415 1921 C 2396 1938 2374 1950 2366 1947 C 2359 1944 2336 1912 2316 1876 C 2291 1832 2268 1805 2247 1794 C 2206 1773 2180 1750 2180 1735 C 2180 1728 2206 1718 2243 1712 L 2305 1701 L 2245 1707 C 2212 1709 2181 1715 2177 1720 C 2159 1737 2183 1771 2228 1794 C 2267 1814 2281 1830 2313 1889 C 2353 1962 2374 1976 2401 1944 Z M 1050 1856 L 1030.712 1837.188 L 1054 1824 C 1068 1821 1102 1820 1128 1823 C 1160 1827 1167 1826 1150 1820 C 1110 1807 1055 1809 1034 1825 C 1015 1839 1016 1840 1040 1860 C 1074 1887 1078 1885 1050 1856 Z M 2288 1660 C 2294 1660 2302 1656 2305 1650 C 2316 1631 2291 1640 2268 1663 C 2255 1675 2251 1679 2260 1673 C 2269 1666 2282 1660 2288 1660 Z"/><path d="M973 2559 c-23 -11 -43 -29 -46 -40 -6 -24 2 -59 15 -59 5 0 -2 -14 -16 -31 -34 -40 -34 -72 -1 -87 36 -16 75 -15 75 2 0 18 55 65 83 70 12 2 55 10 95 17 39 7 72 14 72 17 0 15 -100 89 -139 103 -83 29 -95 29 -138 8z"/></g></svg>