<?xml version="1.0" encoding="utf-8"?>
<svg xmlns="http://www.w3.org/2000/svg" viewBox="0 0 500 500" xmlns:bx="https://boxy-svg.com" width="500px" height="500px"><defs><bx:export><bx:file format="svg" path="Sin título.svg"/></bx:export></defs><path d="M 166.556 16.755 C 168.539 16.745 330.296 16.747 332.202 16.731 C 345.318 16.625 355.533 19.043 367.499 24.419 C 370.685 25.81 473.91 62.655 474.667 62.909 C 480.663 65.109 484.042 68.504 486.896 74.209 C 487.003 76.449 487.563 473.32 487.579 474.986 C 487.708 488.986 487.708 488.986 484.275 493.264 C 480.453 496.383 478.211 497.021 473.248 496.944 C 467.861 496.332 343.681 448.971 343.681 448.971 L 153.473 450.087 C 153.473 450.087 38.345 493.369 36.225 494.471 C 31.196 495.075 27.557 495.164 23.194 492.436 C 19.609 488.627 19.797 486.288 19.787 481.14 C 19.784 480.43 19.261 72.372 19.26 71.06 C 20.144 66.657 21.939 65.071 25.366 62.263 C 28.822 60.597 127.905 24.668 130.596 23.458 C 142.841 18.084 153.283 16.637 166.556 16.755 Z M 161.109 39.458 C 161.109 168.469 161.109 297.48 161.109 430.401 C 218.448 430.401 275.786 430.401 334.862 430.401 C 334.862 301.39 334.862 172.379 334.862 39.458 C 277.524 39.458 220.185 39.458 161.109 39.458 Z M 356.581 43.802 C 356.581 171.738 356.581 299.674 356.581 431.487 C 366.447 435.641 461.99 470.746 465.176 470.581 C 465.176 342.645 465.176 214.709 465.176 82.896 C 432.386 71.07 358.002 43.741 356.581 43.802 Z M 139.391 43.802 C 137.021 43.802 42.762 78.387 41.655 79.639 C 41.548 81.705 41.63 420.059 41.655 468.409 C 43.571 467.892 127.47 437.993 139.391 433.659 C 139.391 305.006 139.391 176.353 139.391 43.802 Z" fill="#000000" style="stroke-width: 1;"/><path d="M 294.885 104.14 C 308.1 118.007 313.855 134.748 313.655 153.69 C 313.041 171.748 305.763 187.74 292.51 200.179 C 276.26 213.387 258.87 218.091 238.212 216.468 C 220.8 214.067 205.878 204.374 194.977 190.813 C 183.447 174.686 180.765 156.271 183.29 136.906 C 184.008 133.964 187.07 124.127 187.575 122.891 C 194.681 107.232 206.485 96.264 222.805 89.887 C 248.456 80.588 274.652 85.384 294.885 104.14 Z M 205.226 116.358 C 195.398 129.468 192.158 143.899 193.688 159.999 C 196.443 174.946 204.662 187.483 216.752 196.578 C 229.319 204.826 244.053 207.579 258.815 205.057 C 273.5 201.463 285.576 193.297 294.342 180.894 C 317.388 147.656 291.679 115.85 291.131 115.094 C 283.852 105.796 270.644 98.589 258.845 97.013 C 237.594 95.164 219.62 99.439 205.226 116.358 Z" fill="#000000" style="stroke-width: 1;"/><path d="M 257.759 133.936 C 261.496 141.409 257.554 152.637 256.046 160.363 C 254.771 167.209 254.226 173.67 254.501 180.631 C 258.265 180.094 258.265 180.094 262.103 179.546 C 262.462 181.338 262.82 183.129 263.19 184.975 C 260.434 186.412 257.674 187.835 254.908 189.252 C 254.134 189.657 244.311 194.444 239.298 194.749 C 236.719 193.256 236.719 193.256 234.955 190.405 C 234.521 182.733 235.629 175.666 237.058 168.143 C 238.437 160.729 239.647 153.389 240.384 145.881 C 237.876 146.24 235.367 146.598 232.783 146.968 C 232.424 145.175 232.065 143.383 231.696 141.537 C 234.138 140.47 236.582 139.407 239.026 138.348 C 239.715 138.046 240.404 137.744 241.114 137.434 C 247.049 134.867 251.303 133.789 257.759 133.936 Z" fill="#000000" style="stroke-width: 1;"/><path d="M 180.559 281.603 C 180.559 281.603 223.196 281.357 224.536 281.357 C 232.619 281.357 232.303 292.485 224.094 292.485 C 221.933 292.485 180.193 292.891 180.193 292.891 C 171.421 292.891 171.195 281.603 180.559 281.603 Z" fill="#000000" style="stroke-width: 1;"/><path d="M 260.151 107.006 C 263.408 109.178 264.131 111.489 265.081 113.389 C 265.946 121.381 259.904 125.651 256.86 126.038 C 252.659 126.17 246.876 124.949 246.103 121.453 C 244.595 114.627 245.033 103.639 260.151 107.006 Z" fill="#000000" style="stroke-width: 1;"/><path d="M 248.476 281.567 C 248.476 281.567 291.113 281.321 292.453 281.321 C 299.035 281.321 301.347 292.449 292.011 292.449 C 289.85 292.449 248.624 292.342 248.624 292.342 C 240.447 292.342 240.217 281.567 248.476 281.567 Z" fill="#000000" style="stroke-width: 1;"/><path d="M 181.768 313.896 C 181.768 313.896 313.383 313.888 317.534 313.888 C 325.688 313.888 325.569 324.872 316.713 324.872 C 310.066 324.872 181.434 325.282 181.434 325.282 C 171.683 325.282 171.942 313.896 181.768 313.896 Z" fill="#000000" style="stroke-width: 1;"/><path d="M 273.357 347.316 C 273.357 347.316 315.994 347.07 317.334 347.07 C 323.916 347.07 326.228 358.198 316.892 358.198 C 314.731 358.198 273.505 358.091 273.505 358.091 C 265.328 358.091 265.098 347.316 273.357 347.316 Z" fill="#000000" style="stroke-width: 1;"/><path d="M 179.998 347.776 C 179.998 347.776 246.549 347.53 248.64 347.53 C 255.405 347.53 256.451 358.658 247.951 358.658 C 244.578 358.658 180.229 358.551 180.229 358.551 C 171.161 358.551 172.204 347.776 179.998 347.776 Z" fill="#000000" style="stroke-width: 1;"/></svg>