<?xml version="1.0" encoding="utf-8"?>
<svg xmlns="http://www.w3.org/2000/svg" viewBox="0 0 500 500" xmlns:bx="https://boxy-svg.com" width="500px" height="500px"><defs><bx:export><bx:file format="svg" href="#object-0" path="Sin título.svg"/><bx:file format="svg" href="#object-1" path="Sin título 2.svg" excluded="true"/><bx:file format="svg" path="Sin título 3.svg"/></bx:export></defs><g transform="matrix(0.1, 0, 0, -0.1, -14.334042, 496.05304)" fill="#000000" stroke="none" id="object-0"><path d="M 572 4623 C 554 4614 485 4537 485 4537 C 485 4537 487.461 760.445 485.131 606.077 C 483.767 487.698 484.592 486.962 583 485 C 1170.461 485.067 3005 480 3005 480 L 2845 640 L 640 640 L 640 4480 L 1270 4480 L 1270 3491 L 1318 3435 L 3082 3435 L 3130 3491 L 3130 4480 L 3827 4480 L 4480 3827 L 4480 1460 L 4640 1460 L 4640 3868 L 3868 4640 C 3868 4640 602 4638 572 4623 Z M 2027 4480 L 2075 4428 L 2075 3632 L 2027 3580 L 1492 3580 L 1440 3642 L 1440 4418 L 1492 4480 L 2027 4480 Z"/><path d="M 1085 2975 L 1060 2951 L 1060 1049 L 1109 1000 L 2485 1000 L 2025 1460 L 2790 1460 L 2790 2740 L 4060 2740 L 4058.352 2950.188 L 4011 3000 L 1109 3000 L 1085 2975 Z"/><path d="M 2970 2560 L 2970 1280 L 2455 1280 L 3520 215 L 4585 1280 L 4070 1280 L 4070 2560 L 2970 2560 Z"/><path d="M 4635 1080 L 4480 925 L 4480 640 L 4195 640 L 4035 479 C 4035 479 4415.953 483.936 4553.462 484.541 C 4633.012 484.891 4632.294 509.896 4632.587 562.982 C 4634.96 654.707 4635 1080 4635 1080 Z" id="object-1"/></g></svg>