<?xml version="1.0" encoding="utf-8"?>
<svg xmlns="http://www.w3.org/2000/svg" viewBox="0 0 500 500" xmlns:bx="https://boxy-svg.com" width="500px" height="500px"><defs><bx:export><bx:file format="svg" path="HabIcon.svg"/></bx:export></defs><g transform="matrix(0.108778, 0, 0, -0.10195, -22.268988, 506.51123)" fill="#000000" stroke="none" style=""><path d="M 2827 4886 C 2815 4873 2725.793 4643.493 2706.195 4580.17 C 2675.855 4482.142 2512.395 3944.466 2566.366 3772.415 C 2590.366 3750.415 2656 3753 2680 3775 C 2711.805 3798.218 2741.897 3961.738 2758.799 3964.323 C 2775.701 3966.908 2791.597 3953.603 2804.597 3940.603 C 2829.597 3913.603 2846.775 3885.231 2884.775 3902.231 C 2930.775 3923.231 2926 3954 2940 4235 C 2974 4895 2974 4860 2936 4892 C 2905 4918 2854 4915 2827 4886 Z M 2933.995 4816.642 C 2926.995 4322.642 2907.888 3962.904 2878.197 3936.319 C 2860.197 3914.319 2803.587 4010.152 2760 4000 C 2730.903 3993.223 2720.577 3971.585 2705.577 3929.585 C 2690.211 3871.707 2692.833 3814.358 2644.186 3789.518 C 2623.11 3789.826 2579.912 3764.957 2582.602 3845.514 C 2594.144 4191.125 2817.256 4850.58 2883 4868 C 2906.321 4874.179 2934.995 4876.642 2933.995 4816.642 Z"/><path d="M 2107 4459 C 2098 4454 2060 4377 2075 4267 C 2092 4138 2103.401 4023.121 2116 3935 C 2126.551 3861.205 2149.205 3789.752 2223.803 3810.599 C 2292.683 3829.848 2298 3853 2259 4185 C 2255 4224 2248 4282 2245 4315 C 2232 4437 2174 4498 2107 4459 Z M 2199.598 4381.401 C 2223.598 4311.401 2228.342 4211.242 2246.284 4041.042 C 2263.282 3879.801 2282.357 3831.266 2180.368 3843.266 C 2146.368 3853.266 2135.154 3994.829 2113.203 4199.202 C 2099.605 4325.809 2101.165 4422.57 2142 4428 C 2177.199 4432.681 2184.598 4426.401 2199.598 4381.401 Z"/><path d="M 1830 4408 C 1786 4392 1770 4370 1770 4324 C 1770 4300 1873 4015 1893 3993 C 1951.25 3937.52 2038 3988.16 2030 4073 C 2014 4138 1928 4374 1915 4387 C 1892 4409 1857 4418 1830 4408 Z M 1889.797 4367.801 C 1898.797 4359.801 1974.165 4130.191 1990.165 4096.191 C 2028.165 4016.191 1956.606 3982.195 1926.204 4004.078 C 1906.566 4003.356 1800.327 4316.518 1800.403 4335.681 C 1811.403 4377.681 1864.797 4392.801 1889.797 4367.801 Z"/><path d="M 3842 4356 C 3831 4350 3757 4286 3678 4215 C 3599 4143 3329 3895 3272 3847 C 3216 3799 3114.197 3678.759 3101.197 3652.759 C 3082.197 3618.759 3085.031 3609.954 3114.598 3590.202 C 3130.843 3582.521 3175.603 3586.486 3261.6 3619.642 C 3296.484 3653.306 3298.597 3633.801 3330.597 3598.801 C 3356.597 3569.801 3364.598 3579.443 3393.598 3579.443 C 3436.398 3605.046 3434.602 3582.801 3566 3725 C 3612 3786 3847.403 4079.276 3869.403 4109.276 C 3891.403 4139.276 3960 4250 3960 4275 C 3960 4343 3897 4386 3842 4356 Z M 3850 4313 C 4104.567 4402.053 3588.397 3794.961 3522.397 3724.961 C 3494.397 3692.961 3391.01 3553.72 3334 3645 C 3326 3678 3286 3679 3241 3646 C 3189 3608 3098.491 3600.684 3120 3635 C 3233.073 3815.396 3838 4308 3850 4313 Z"/><path d="M 880.204 4326.638 C 836.006 4288.354 845.999 4268.397 855.597 4232.957 C 902.678 4094.342 1340.61 3630.374 1400.2 3623.84 C 1471.2 3623.84 1506 3714 1457 3772 C 1445 3786 1427 3808 1417 3820 C 1339.925 3900.888 1327.308 3931.589 1365.875 3914.723 C 1430.674 3886.385 1647.167 3700.456 1836 3600 C 1888.797 3588.479 1912.755 3612.601 1924.755 3639.601 C 1944.755 3683.601 1938 3695 1859 3868 C 1843 3902 1816 3960 1799 3998 C 1735 4137 1725 4149 1669 4150 C 1631 4150 1621.965 4136.162 1607.293 4112.496 C 1599.397 4081.261 1610.764 4061.179 1630.764 4015.179 C 1693.148 3923.639 1718.084 3878.947 1727.361 3838.535 C 1697.511 3829.852 1464.891 4026.749 1420 4052 C 1401 4063 1186 4198 1110 4248 C 970 4339 913.88 4355.808 880.204 4326.638 Z M 892.394 4304.174 C 940.092 4382.304 1667.51 3832.733 1735.51 3797.733 C 1735.51 3797.733 1793.106 3799.185 1710.917 3942.157 C 1624.301 4058.636 1631.756 4089.429 1645.48 4108.517 C 1661.047 4130.169 1681.057 4128.873 1706.456 4111.457 C 1748.396 4077.346 1845.551 3833.953 1885.671 3745.995 C 1913.87 3680.286 1900.578 3622.719 1859.429 3629.549 C 1805.609 3638.482 1702.557 3716.942 1646.396 3750.85 C 1540.396 3814.85 1402.515 3955.444 1327.904 3949.443 C 1300.379 3915.854 1314.762 3903.679 1411.962 3770.619 C 1432.962 3741.619 1473.407 3730.548 1437.927 3673.87 C 1401.271 3632.731 1345.708 3690.872 1315.253 3726.224 C 979.939 4091.381 917.211 4169.198 879.015 4243.486 C 865.826 4269.138 877.394 4289.174 892.394 4304.174 Z"/><path d="M 2360.399 4236 C 2347.78 4212.67 2332.799 4206.841 2315.601 4082.72 C 2313.601 4011.72 2306.525 3889.447 2315 3816.879 C 2334.196 3652.517 2333.796 3677.844 2365 3622.961 C 2379.368 3597.691 2427.73 3603.94 2436.999 3634.043 C 2507.29 3725.985 2491 4213 2469 4236 C 2439 4268 2382.801 4260.319 2360.399 4236 Z M 2452.35 4215.724 C 2468.212 4191.578 2472.327 3608.762 2392.921 3634.527 C 2323.202 3662.993 2333.303 4187.433 2381.11 4218.409 C 2411.543 4250.559 2440.702 4233.455 2452.35 4215.724 Z"/><path d="M 3078 4035.17 C 3021.404 4053.092 2954.469 3918.735 2930.2 3852.319 C 2883.195 3723.681 2841.601 3649.456 2953.801 3640.816 C 3011.198 3645.816 3158.789 3934 3153.789 3963 C 3146.789 4015 3127.574 4019.472 3078 4035.17 Z M 3126.551 3975.039 C 3135.551 3952.039 3112.599 3906.199 3047.599 3788.199 C 2990.599 3685.199 2964 3658.638 2931 3669.638 C 2900 3679.638 2898.047 3723.828 2926.047 3772.828 C 2940.047 3797.828 3010.92 4017.243 3072.306 4009.343 C 3099.692 4005.818 3122.831 3984.338 3126.551 3975.039 Z"/><path d="M 923.253 3748.473 C 896.859 3749.412 778.451 3777.095 851.456 3670.935 C 854.421 3625.704 1198.799 3410.151 1379.053 3394.297 C 1468.808 3392.161 1470.719 3440.4 1467 3468 C 1459 3511 1203 3646 1140 3679 C 1078 3713 951.888 3747.454 923.253 3748.473 Z M 865.15 3700.933 C 823 3796.685 1265.315 3594.956 1409.168 3488.052 C 1450.581 3457.276 1456.579 3423.653 1367.468 3426.479 C 1227.499 3438.788 945.3 3618.216 865.15 3700.933 Z"/><path d="M 4127.432 3718.936 C 4117.432 3713.936 4069.432 3675.936 4023.432 3599.936 C 3959.432 3494.936 3899.581 3341.595 3877.205 3239.911 C 3824.205 3072.911 3833.991 2815 3899.991 2698 C 3917.31 2639.693 4059.27 2423.412 4125.438 2404.726 C 4187.057 2341.614 4206.193 2282.395 4184.14 2252.208 C 4151.424 2191.466 4152.11 2184.01 4125.086 2087.842 C 4090.124 2017.3 4029.932 1961.677 4015.883 1940.502 C 3848.879 1774.718 3442 1557.908 3425 1557.908 C 3371.63 1544.268 3367.117 1669.908 3355.117 1682.908 C 3343.117 1695.908 3305.264 1709.885 3282.264 1679.885 C 3114.847 1449.946 2851.147 1363.908 2788.147 1344.908 C 2668.147 1306.908 2461.136 1288.278 2336.136 1317.278 C 2289.154 1326.037 2297.708 1342.172 2225.569 1348.013 C 2219.999 1348.464 2183.214 1335.925 2195.465 1301.606 C 2223.722 1222.448 2254.874 1150.098 2236.522 1148.706 C 1965.578 1140.643 1783.161 1184.504 1526.412 1215.885 C 1491.317 1232.088 1444.412 1291.954 1444.412 1291.954 C 1313.412 1422.954 1227 1473 1072 1536 C 960 1583 916 1581 880 1526 C 861 1499 840 1483 807 1471 C 748 1451 682.177 1392.207 661.177 1351.207 C 626.177 1281.207 658.736 1189 724.736 1133 C 805.736 1063 809.441 1062.023 1194.441 875.023 C 1321.441 814.023 1345.412 801.115 1407.412 782.115 C 1606.412 719.115 1684.147 725.985 2342.147 688.985 C 2450.147 682.985 2470.053 687.629 2473.053 669.629 C 2475.053 658.629 2481.3 535.642 2486.3 425.642 C 2486.465 173.01 2482.324 121.862 2526.412 91.207 C 2630.919 75.953 3613.954 294.315 3793.951 468.256 C 3822.099 493.088 3816.236 523.724 3805.186 539.798 C 3752.804 655.135 3527.443 984.958 3513.905 1005.568 C 3511.529 1007.749 3494.306 1033.569 3505.41 1044.288 C 3586.321 1084.879 4197.766 1519.609 4309.862 1716.452 C 4373.329 1836.787 4410 1773 4448 1700 C 4528 1549 4575.095 1443.345 4605 1446 C 4654.946 1431.011 4747.164 1675.171 4740 1740 C 4753 1778 4727.372 1813.923 4664.372 1920.923 C 4622.372 1991.923 4629.159 2034.386 4667.159 2072.386 C 4737.74 2170.333 4706.584 2234.691 4691.584 2252.691 C 4664.584 2284.691 4596 2325.459 4562 2325.459 C 4552 2325.459 4512.425 2345.691 4491.425 2362.691 C 4471.425 2379.691 4400 2427 4400 2434 C 4400 2442 4412 2472 4428 2501 C 4443 2531 4485 2644 4490 2655 C 4504 2691 4518 2753 4531 2837 C 4543 2918 4537.885 3092.372 4491 3185 C 4474 3241 4446 3298 4375 3420 C 4342 3478 4313.095 3497.125 4268.157 3596.294 C 4195.157 3761.294 4188.432 3754.936 4127.432 3718.936 Z M 4173.556 3690.933 C 4193.031 3662.706 4221.352 3566.12 4284.557 3473.653 C 4383.917 3328.293 4486.528 3129.805 4493.616 2976.608 C 4518.926 2657.579 4320.372 2442.623 4335.372 2416.623 C 4349.372 2388.623 4384.212 2345.85 4417.212 2338.85 C 4433.212 2334.85 4473.524 2300.74 4476.524 2296.74 C 4489.524 2277.74 4532.947 2264.436 4553.947 2264.436 C 4565.947 2264.436 4591.006 2233.545 4614.006 2222.545 C 4673.006 2196.545 4682 2175 4640 2116 C 4596 2055 4590 1994 4620 1919 C 4632 1889 4701.604 1813.648 4699.681 1752 C 4695.605 1656.657 4673.155 1589.999 4621.237 1516.404 C 4609.244 1501.038 4592.301 1516.898 4588.368 1522.407 C 4529.279 1605.188 4478.399 1755.333 4426.831 1820.027 C 4397.831 1856.027 4358.479 1895.571 4309.221 1807.181 C 4168.216 1592.492 3622.462 1166.701 3520.462 1121.701 C 3468.462 1098.701 3449.6 1074.064 3449.6 1036.064 C 3449.6 1028.531 3749.478 536.385 3749.478 536.385 C 3749.478 536.385 3755.549 508.49 3737.737 491.462 C 3486.195 301.767 2654.835 153.343 2590.835 153.343 C 2547.835 153.343 2546.541 166.942 2545.541 187.942 C 2545.541 199.942 2544 326 2539 425 C 2530 598 2528 643 2530 684 C 2531 695 2522 713 2510 724 C 2491 743 2474 746 2317 751 C 2223 755 2073 763 1985 768 C 1571 796 1487 812 1293 906 C 1231 936 1176 960 1170 960 C 1154 960 946 1051 867 1093 C 797 1131 725 1202 714 1246 C 696 1317 754 1394 846 1421 C 876 1430 900 1447 921 1472 C 940 1496 959 1510 974 1510 C 1008 1510 1161 1436 1246 1379 C 1291 1349 1335 1308 1360 1274 C 1420 1194 1465 1165 1552 1152 C 1859 1106 2226 1081.24 2280 1108.24 C 2316 1126.24 2324.178 1162.447 2287.178 1228.447 C 2274.021 1254.51 2261.771 1278.161 2290.295 1274.493 C 2395.421 1217.756 2940.251 1171.096 3278.925 1578.646 C 3295.925 1601.646 3306.874 1620.458 3314.874 1620.458 C 3329.874 1620.458 3318.776 1586.461 3328.884 1553.246 C 3339.948 1516.892 3366.264 1495.781 3400.264 1495.781 C 3471.264 1495.781 4179.957 1844.369 4202.596 2174.14 C 4238.152 2222.032 4227.985 2252.13 4227.985 2293.13 C 4227.985 2367.13 4195 2402 4079 2499 C 3615.622 2990.575 4124.835 3756.213 4173.556 3690.933 Z"/><path d="M 3703 3649 C 3675 3662 3597.801 3616.918 3582.801 3605.918 C 3567.801 3594.918 3418.799 3513.199 3399.799 3495.199 C 3369.799 3469.199 3320.548 3418.297 3401.197 3386.642 C 3463.793 3352.362 3622.4 3441.84 3652.4 3457.84 C 3709.4 3488.84 3750.2 3552.163 3752.2 3578.163 C 3756.2 3624.163 3737 3634 3703 3649 Z M 3689.598 3614.39 C 3765.518 3594.66 3720.418 3553.529 3656.194 3497.715 C 3616.793 3463.474 3558.328 3440.006 3501.999 3418.855 C 3467.105 3405.752 3420.369 3394.893 3400.875 3416.938 C 3378.731 3441.979 3378.405 3449.444 3444.405 3493.444 C 3544.405 3561.444 3645.598 3618.39 3689.598 3614.39 Z"/><path d="M 2090.408 3550.216 C 2013.408 3505.216 1999 3153 1999 3153 L 1927 3103 C 1887 3075 1831 3031 1801 3004 C 1729 2938 1611.296 2767.108 1575.296 2687.108 C 1559.296 2650.108 1483.528 2459.515 1491.528 2415.515 C 1500.528 2357.515 1538 2315 1622 2301 C 1738 2281 2020 2294 2165 2325 C 2241 2341 2722.419 2438.293 3199 2810 C 3251.007 2852.814 3260 2877 3260 2911 C 3260 3003 3096 3157 2927 3224 C 2803 3272 2703 3290 2551 3290 L 2412 3290 C 2412 3290 2143.408 3580.216 2090.408 3550.216 Z M 2145.477 3461.957 C 2169.125 3443.226 2340.232 3276.162 2348.232 3264.162 C 2360.232 3245.162 2398.296 3216.809 2468.88 3226.216 C 2680.718 3235.244 3064.443 3188.371 3183 2921 C 3183 2896 3175 2880 3147 2854 C 3128 2835 2952.63 2676.27 2660 2555 C 2083.79 2303.45 1684 2345.966 1613 2374.966 C 1563 2395.966 1566.485 2397.393 1562.477 2458.269 C 1559.533 2502.986 1759.139 2998.862 2034.342 3105.777 C 2043.542 3109.351 2084.979 3133.63 2068.356 3176.761 C 2048.532 3281.204 2076.245 3388.417 2085.55 3435.133 C 2096.134 3488.271 2105.437 3493.671 2145.477 3461.957 Z"/><path d="M 1224 3288 C 1197 3286 420.577 3309.807 312.795 3232.977 C 245.21 3184.424 287.799 3156.672 322.073 3130.483 C 389.869 3074.084 965.535 2916.07 1026 2988 C 1048 3020 1024.976 3112.152 1024.976 3112.152 C 1024.976 3112.152 1326 3122 1346 3141 C 1377 3170 1383 3205 1365 3245 C 1346 3283 1312 3293 1224 3288 Z M 1312.931 3240.046 C 1347.986 3229.728 1356.124 3181.318 1320.425 3165.871 C 1307.425 3152.871 1044 3152 1005 3145 C 967 3138 1010.329 3046.507 999.329 3017.507 C 934.44 2959.154 339.663 3110.919 324.575 3177.106 C 322.453 3186.414 321.87 3216.282 371.694 3228.306 C 474.463 3253.107 692.255 3259.858 856.585 3259.185 C 1297.585 3258.185 1288.719 3247.172 1312.931 3240.046 Z"/><path d="M 965 2781 C 883 2760 781.801 2719.827 748.476 2710.561 C 697.925 2696.506 663.354 2646.087 696.105 2610.126 C 717.477 2591.128 750.846 2584.971 776.166 2585.583 C 938.078 2589.494 1138.921 2640.35 1199.647 2690.694 C 1228.607 2716.617 1244.787 2746.408 1224.787 2772.408 C 1191.134 2800.663 1138.48 2812.332 965 2781 Z M 1189.456 2758.536 C 1217.947 2689.885 955.452 2615.033 798.679 2614.572 C 760.472 2614.46 749.943 2620.094 734.639 2629.082 C 640.332 2697.671 1148.627 2801.901 1189.456 2758.536 Z"/><path d="M 3320 2754.759 C 2520.348 2016.444 1821.379 2190.625 1576 2178 C 1529.19 2175.592 1526 2186 1502 2161 C 1443 2098 1372 1973 1304 1810 C 1266 1719 1265 1621 1300 1568 C 1337 1513 1389 1488 1463 1488 C 1534 1488 1577 1504 1673 1566 C 1749 1615 1767 1632 1826 1705 C 1848 1733 1859.66 1756 1877 1757 C 1895.21 1757.13 1910 1734 1936 1702 C 2030 1591 2123 1515 2211 1476 C 2315 1430 2478 1418 2630 1446 C 2677 1454 3362.672 1584.415 3327.193 2207.146 C 3307.162 2277.972 3444.075 2179.573 3565.075 2151.573 C 3971.084 2093.207 3973.034 2314.031 3935.034 2394.031 C 3919.034 2429.031 3803 2544 3740 2594 C 3655.099 2673.247 3463.78 2769.221 3355 2756.139 M 3441.699 2686.911 C 3611.201 2662.809 3960.628 2391.763 3892.575 2272.723 C 3866.222 2226.625 3768.22 2178.722 3588 2212 C 3518.294 2215.064 3389.46 2288.701 3321.797 2291.168 C 3301.127 2291.921 3285.52 2276.244 3280.701 2259.941 C 3291.954 2150.785 3245 1953 3185 1845 C 3106 1705 2927 1586 2690 1519 C 2607 1495 2426 1487 2335 1503 C 2184 1530 2017.53 1662.29 1948 1779 C 1857.14 1848.53 1835 1802 1787 1735 C 1734 1660 1360.465 1375.897 1346 1683 C 1339.711 1816.513 1507.562 2098.577 1549.408 2121.705 C 1843.281 2131.503 2612.835 2002.287 3338.49 2706.825"/><path style="fill: rgb(216, 216, 216); stroke: rgb(0, 0, 0);"/><path style="fill: rgb(216, 216, 216); stroke: rgb(0, 0, 0);" d="M 1636.361 2158.979 L 1689.374 2166.521"/></g></svg>