<?xml version="1.0" encoding="utf-8"?>
<svg xmlns="http://www.w3.org/2000/svg" viewBox="0 0 500 500" xmlns:bx="https://boxy-svg.com" width="500px" height="500px"><defs><bx:export><bx:file format="svg" path="Sin título.svg"/></bx:export></defs><g transform="matrix(0.1, 0, 0, -0.1, -5.074203, 481.652191)" fill="#000000" stroke="none"><path d="M 3735 4593 C 2194.514 5114.922 1103 4092 615 3360 C 389 3021 247 2654 190 2268 C 167 2115 162 1837 180 1695 C 277 899 813 295 1595 101 C 1783 54 1856 47 2115 46 C 2468 45 2669 77 3000 190 C 3713 434 4365 1008 4704 1690 C 4821 1927 4888 2118 4936 2359 C 4999 2673 4991 3022 4914 3324 C 4764 3917 4322 4392 3735 4593 Z M 2714.338 4585.667 C 3426.896 4677.616 4180.906 4249.533 4353 4030 C 4353 4030 2897.628 3027 2889.628 3020 C 2883.628 3015 2939 2921 2967 2871 C 2969 2868 4626 3580 4633 3580 C 4702.304 3565.334 4821.245 3154 4796.372 3146 C 4793.679 3145.134 3004.759 2734 2996.759 2730 C 2967.279 1829.009 2126 1824 2126 1824 L 1870 193.757 C 1554.856 152.517 729.896 575.231 482 1109 C 484 1114 589 1203 715 1306 C 1286 1773 1635.125 2027.317 1647.125 2038.317 C 1657.125 2047.317 1576 2200 1573 2200 C 1571 2200 327.306 1543.659 315 1552 C 272.973 1580.487 257.565 1912.282 267 1917 C 267 1917 1531 2327 1538 2333 C 1546 2339 1550 2370 1550 2420 C 1550 2751 1825 3096 2180 3209 C 2282.482 3246.241 2402 3245 2407 3252 C 2420 3267 2668.007 4370.017 2714.338 4585.667 Z"/><path d="M 2245 3186 C 1936 3115 1667 2848 1604 2550 C 1500 2058 1959 1729 2443 1949 C 2761 2093 2982 2443 2941 2735 C 2909 2955 2794 3100 2594 3171 C 2518 3198 2356.735 3220.241 2245 3186 Z M 2480.567 2899.756 C 2660.567 2806.756 2704.439 2510.128 2545.439 2334.128 C 2443.439 2220.128 2299.189 2137.487 2169.189 2144.487 C 2055.189 2149.487 1940.594 2225.629 1893.244 2318.433 C 1843.868 2415.207 1898 2591 1923 2643 C 2026 2851 2304.567 2989.756 2480.567 2899.756 Z"/></g></svg>